name D:\PhD\Datasets\SharingData_IBEC_VALDUCE\HM_Healthy_0001.mot
datacolumns 46
datarows 4
range 5.01000000 5.04000000
endheader
                time	         pelvis_tilt	     pelvis_rotation	           pelvis_tx	           pelvis_ty	           pelvis_tz	       hip_flexion_r	     hip_adduction_r	      hip_rotation_r	        knee_angle_r	       ankle_angle_r	    subtalar_angle_r	         mtp_angle_r	       hip_flexion_l	     hip_adduction_l	      hip_rotation_l	        knee_angle_l	       ankle_angle_l	    subtalar_angle_l	         mtp_angle_l	    lumbar_extension	      lumbar_bending	     lumbar_rotation	          arm_flex_r	           arm_add_r	           arm_rot_r	        elbow_flex_r	           pro_sup_r	        wrist_flex_r	         wrist_dev_r	          arm_flex_l	           arm_add_l	           arm_rot_l	        elbow_flex_l	           pro_sup_l	        wrist_flex_l	         wrist_dev_l	          end_eff_tx	          end_eff_ty	          end_eff_tz	             goal_tx	             goal_ty	             goal_tz	            elbow_tx	            elbow_ty	            elbow_tz	
          5.01000000	          0.00000000	          0.00000000	        324.87617380	        496.31144343	        375.00118606	          0.00000000	          0.00000000	          0.00000000	          0.00000000	          0.00000000	          0.00000000	          0.00000000	          0.00000000	          0.00000000	          0.00000000	          0.00000000	          0.00000000	          0.00000000	          0.00000000	         -5.18463230	          4.42407131	         -4.39265823	         57.86275482	        -22.70916939	         25.19238472	        103.95920563	         59.31735229	          0.00000000	          0.00000000	          0.00000000	          0.00000000	          0.00000000	          0.00000000	          0.00000000	          0.00000000	          0.00000000	        523.44408889	        734.08065041	        445.96124712	        428.25949991	        729.00385451	        385.49175756	        418.53453690	        398.23677425	        675.89973728	
          5.02000000	          0.00000000	          0.00000000	        324.86759774	        496.34630222	        375.02673962	          0.00000000	          0.00000000	          0.00000000	          0.00000000	          0.00000000	          0.00000000	          0.00000000	          0.00000000	          0.00000000	          0.00000000	          0.00000000	          0.00000000	          0.00000000	          0.00000000	         -5.17969465	          4.40043545	         -4.40165806	         57.90603638	        -22.66189194	         25.15531158	        104.00366211	         59.31819916	          0.00000000	          0.00000000	          0.00000000	          0.00000000	          0.00000000	          0.00000000	          0.00000000	          0.00000000	          0.00000000	        523.06086484	        734.51897533	        445.99612515	        427.83914203	        729.30347073	        385.44716937	        418.78674371	        398.33882141	        675.72780759	
          5.03000000	          0.00000000	          0.00000000	        324.86500652	        496.34009209	        375.05417721	          0.00000000	          0.00000000	          0.00000000	          0.00000000	          0.00000000	          0.00000000	          0.00000000	          0.00000000	          0.00000000	          0.00000000	          0.00000000	          0.00000000	          0.00000000	          0.00000000	         -5.21669865	          4.43622446	         -4.38951874	         58.00172043	        -22.64116287	         25.16851044	        104.02582550	         59.33339691	          0.00000000	          0.00000000	          0.00000000	          0.00000000	          0.00000000	          0.00000000	          0.00000000	          0.00000000	          0.00000000	        522.71356060	        735.02686271	        446.04112515	        427.47025408	        729.45467441	        385.48028345	        419.05181653	        398.48547447	        675.57442212	
          5.04000000	          0.00000000	          0.00000000	        324.83797150	        496.31057353	        375.05440530	          0.00000000	          0.00000000	          0.00000000	          0.00000000	          0.00000000	          0.00000000	          0.00000000	          0.00000000	          0.00000000	          0.00000000	          0.00000000	          0.00000000	          0.00000000	          0.00000000	         -5.24586010	          4.41265535	         -4.41744900	         58.08072662	        -22.58903885	         25.14846230	        104.04865265	         59.36328506	          0.00000000	          0.00000000	          0.00000000	          0.00000000	          0.00000000	          0.00000000	          0.00000000	          0.00000000	          0.00000000	        522.36693103	        735.44602694	        445.98580022	        427.23698445	        729.81311679	        385.44280635	        419.27209181	        398.61515663	        675.42720854	
